<svg width="28" height="28" viewBox="0 0 28 28" fill="none" xmlns="http://www.w3.org/2000/svg">
<g clip-path="url(#clip0_25327_63387)">
<path d="M4.58203 23.9345L14.0001 10.3306L17.1395 12.9468L8.24462 25.5042L6.67494 26.0274L5.10526 25.5042L4.58203 23.9345Z" fill="#DDF3FF"/>
<path d="M16.282 8.1261L17.1394 6.66813" stroke="#71BEB5" stroke-width="0.9" stroke-linecap="round"/>
<path d="M17.2715 9.11542L17.971 7.90377" stroke="#71BEB5" stroke-width="0.9" stroke-linecap="round"/>
<path d="M18.2607 10.1047L18.9603 8.89303" stroke="#71BEB5" stroke-width="0.9" stroke-linecap="round"/>
<path d="M6.56954 23.4218C6.88121 22.9344 7.52767 22.7911 8.01344 23.1017C8.49922 23.4123 8.64037 24.0593 8.3287 24.5467C8.01703 25.0341 7.37057 25.1774 6.88479 24.8668C6.39901 24.5562 6.25787 23.9092 6.56954 23.4218Z" fill="#71BEB5"/>
<path d="M14.0001 10.3307L5.57953 22.9615C5.01229 23.8124 5.17826 24.9541 5.96428 25.6082L6.15271 25.765C7.05812 26.5185 8.41537 26.3303 9.08152 25.3588L17.6703 12.8335M14.0001 10.3307L17.6703 12.8335M14.0001 10.3307L12.9905 7.04553C12.8395 6.55413 12.8835 6.02345 13.1134 5.56365L14.3345 3.12136C14.628 2.53434 15.1908 2.12868 15.8405 2.03586L18.8532 1.60549C19.4136 1.52542 19.763 2.19487 19.3767 2.60881L17.8274 4.26909C17.0068 5.14852 17.1425 6.54815 18.1168 7.25356L22.4851 10.4163C22.7626 10.6173 22.8158 11.0095 22.6017 11.2771L21.9571 12.0829C21.5776 12.5573 21.0029 12.8335 20.3954 12.8335L19.7184 12.8335L17.6703 12.8335" stroke="#71BEB5" stroke-width="1.4"/>
<path d="M20.086 8.60697L22.1068 5.53485C22.3837 5.11393 23.0247 5.20106 23.1792 5.68061L23.7302 7.3912C23.9275 8.00356 23.8181 8.67342 23.4363 9.19125L22.4373 10.5463" stroke="#71BEB5" stroke-width="1.4"/>
</g>
<defs>
<clipPath id="clip0_25327_63387">
<rect width="28" height="28" fill="white"/>
</clipPath>
</defs>
</svg>
