<svg width="28" height="28" viewBox="0 0 28 28" fill="none" xmlns="http://www.w3.org/2000/svg">
<path d="M7 6C5.344 6 4 4.656 4 3C4 1.344 5.344 0 7 0C8.656 0 10 1.344 10 3C10 4.656 8.656 6 7 6ZM7 1.2C6.008 1.2 5.2 2.008 5.2 3C5.2 3.992 6.008 4.8 7 4.8C7.992 4.8 8.8 3.992 8.8 3C8.8 2.008 7.992 1.2 7 1.2Z" fill="#EBBE37"/>
<path d="M21 12C19.344 12 18 10.656 18 9C18 7.344 19.344 6 21 6C22.656 6 24 7.344 24 9C24 10.656 22.656 12 21 12ZM21 7.2C20.008 7.2 19.2 8.008 19.2 9C19.2 9.992 20.008 10.8 21 10.8C21.992 10.8 22.8 9.992 22.8 9C22.8 8.008 21.992 7.2 21 7.2Z" fill="#EBBE37"/>
<path d="M7 9C6.17174 9 5.5 8.32826 5.5 7.5C5.5 6.67174 6.17174 6 7 6C7.82826 6 8.5 6.67174 8.5 7.5C8.5 8.32826 7.82826 9 7 9ZM7 6.97174C6.71304 6.97174 6.47826 7.20652 6.47826 7.49348C6.47826 7.78043 6.71304 8.01522 7 8.01522C7.28696 8.01522 7.52174 7.78043 7.52174 7.49348C7.52174 7.20652 7.28696 6.97174 7 6.97174Z" fill="#EBBE37"/>
<path d="M21 15C20.1717 15 19.5 14.3283 19.5 13.5C19.5 12.6717 20.1717 12 21 12C21.8283 12 22.5 12.6717 22.5 13.5C22.5 14.3283 21.8283 15 21 15ZM21 12.9717C20.713 12.9717 20.4783 13.2065 20.4783 13.4935C20.4783 13.7804 20.713 14.0152 21 14.0152C21.287 14.0152 21.5217 13.7804 21.5217 13.4935C21.5217 13.2065 21.287 12.9717 21 12.9717Z" fill="#EBBE37"/>
<path d="M11.8884 17.0475C10.7393 22.0992 3.25509 22.0934 2.11176 17.0417C1.44092 14.0784 3.28425 11.57 4.90009 10.0184C6.07259 8.88671 7.92759 8.88671 9.10592 10.0184C10.7159 11.57 12.5593 14.0842 11.8884 17.0475Z" fill="#FFF6DC" stroke="#EBBE37" stroke-width="1.5"/>
<path d="M9.5511 16.5243C8.95138 19.1606 5.04557 19.1576 4.44889 16.5212C4.0988 14.9747 5.06079 13.6657 5.90406 12.8559C6.51595 12.2653 7.48403 12.2653 8.09898 12.8559C8.9392 13.6657 9.90119 14.9778 9.5511 16.5243Z" fill="#FFF6DC" stroke="#EBBE37" stroke-width="1.3"/>
<path d="M25.8884 23.0475C24.7393 28.0992 17.2551 28.0934 16.1118 23.0417C15.4409 20.0784 17.2843 17.57 18.9001 16.0184C20.0726 14.8867 21.9276 14.8867 23.1059 16.0184C24.7159 17.57 26.5593 20.0842 25.8884 23.0475Z" fill="#FFF6DC" stroke="#EBBE37" stroke-width="1.5"/>
<path d="M23.5511 22.5243C22.9514 25.1606 19.0456 25.1576 18.4489 22.5212C18.0988 20.9747 19.0608 19.6657 19.9041 18.8559C20.516 18.2653 21.484 18.2653 22.099 18.8559C22.9392 19.6657 23.9012 20.9778 23.5511 22.5243Z" fill="#FFF6DC" stroke="#EBBE37" stroke-width="1.3"/>
</svg>
