<svg width="28" height="28" viewBox="0 0 28 28" fill="none" xmlns="http://www.w3.org/2000/svg">
<path d="M3.98828 16H7.48828L9.98828 11.5L13.9883 18L16.9883 13L19.4883 16H23.4883L16.9883 23L13.9883 25.5L10.4883 22.5L4.98828 17.5L3.98828 16Z" fill="white"/>
<path d="M3.48828 9L5.98828 6.5L9.98828 6L12.9883 8H14.4883L18.9883 6L21.9883 6.5L24.4883 8.5L25.4883 11.5L24.4883 15.5L18.9883 16L16.9883 13L13.9883 18.5L9.98828 11.5L7.98828 16H3.48828L2.98828 12.5L3.48828 9Z" fill="#D7F8F3"/>
<path fill-rule="evenodd" clip-rule="evenodd" d="M13.9883 26.6095C14.1872 26.6095 14.378 26.5305 14.5186 26.3899L23.9204 16.9881C23.9983 16.9101 24.074 16.8308 24.1474 16.75H26.2266C26.6408 16.75 26.9766 16.4142 26.9766 16C26.9766 15.5858 26.6408 15.25 26.2266 15.25H25.1812C26.4701 12.7014 26.0499 9.5099 23.9204 7.38045C21.2673 4.72735 16.9658 4.72735 14.3127 7.38046L13.9883 7.70482L13.6639 7.38046C11.0108 4.72735 6.70934 4.72735 4.05624 7.38045C1.92674 9.5099 1.50647 12.7014 2.79542 15.25H1.75C1.33579 15.25 1 15.5858 1 16C1 16.4142 1.33579 16.75 1.75 16.75H3.82921C3.90259 16.8308 3.97827 16.9101 4.05623 16.9881L4.05624 16.9881L13.458 26.3899C13.5986 26.5305 13.7894 26.6095 13.9883 26.6095ZM5.93947 16.75L13.9883 24.7989L22.0371 16.75H19.0283C19.0032 16.7504 18.9781 16.7496 18.9532 16.7475C18.8454 16.7386 18.744 16.7069 18.654 16.6572C18.5644 16.608 18.4838 16.5399 18.4188 16.4543C18.4032 16.4339 18.3887 16.4126 18.3752 16.3905L17.1182 14.4059L14.5428 18.9027C14.5062 18.9688 14.4595 19.0297 14.4034 19.083C14.2583 19.221 14.0642 19.2939 13.8675 19.289C13.6708 19.2838 13.4808 19.2011 13.3429 19.0558C13.2896 18.9998 13.2461 18.9366 13.2129 18.8687L10.091 12.707L8.59275 16.2744C8.57621 16.3165 8.55599 16.3567 8.53247 16.3946C8.41933 16.5771 8.23004 16.7075 8.00897 16.7414C7.96564 16.7481 7.92154 16.751 7.87717 16.75H5.93947ZM16.428 12.5929L13.9271 16.9594L10.6983 10.5868C10.6639 10.5178 10.6189 10.454 10.5643 10.398C10.5472 10.3805 10.5292 10.3638 10.5103 10.3479C10.4463 10.294 10.3741 10.2517 10.2971 10.2221C10.2001 10.1846 10.0997 10.1687 10.0015 10.1722C9.90272 10.1755 9.80311 10.1985 9.7084 10.2431C9.63316 10.2784 9.56363 10.3262 9.50324 10.3851C9.48581 10.4021 9.46914 10.4201 9.45331 10.4389C9.40334 10.4983 9.36331 10.5648 9.33412 10.6356L7.39607 15.25H4.54349C3.07155 13.1828 3.26268 10.2953 5.11689 8.44112L4.62736 7.95158L5.11689 8.44111C7.18421 6.3738 10.536 6.3738 12.6033 8.44111L13.458 9.29581C13.7509 9.58871 14.2257 9.58871 14.5186 9.29581L15.3733 8.44111C17.4407 6.3738 20.7924 6.3738 22.8597 8.44111L23.39 7.91079L22.8597 8.44112C24.7139 10.2953 24.9051 13.1828 23.4331 15.25H19.4284L17.7273 12.564C17.6936 12.5085 17.6525 12.4569 17.6043 12.4109C17.5382 12.3476 17.462 12.298 17.3801 12.2632C17.2796 12.2202 17.1737 12.2008 17.0694 12.2032C16.965 12.2054 16.86 12.2295 16.7614 12.2769C16.6812 12.3153 16.6072 12.3683 16.5439 12.4345C16.4979 12.4825 16.4591 12.5359 16.428 12.5929Z" fill="#71BEB5"/>
</svg>
