<svg width="28" height="28" viewBox="0 0 28 28" fill="none" xmlns="http://www.w3.org/2000/svg">
<path d="M3.69391 13.6895C3.23048 13.2625 3.27274 12.5185 3.78154 12.1467L15.674 3.45674C16.1199 3.1309 16.7455 3.22824 17.0714 3.67416L21.5757 9.83847C21.902 10.285 21.8039 10.9117 21.3567 11.2371L10.6629 19.0176C10.2774 19.2981 9.74756 19.2675 9.39697 18.9444L3.69391 13.6895Z" fill="#DDF3FF"/>
<path fill-rule="evenodd" clip-rule="evenodd" d="M16.982 4.57269L21.1563 10.1937C21.3239 10.4195 21.2725 10.739 21.0426 10.9008L10.463 18.3457C10.2794 18.4749 10.0322 18.4659 9.85849 18.3236L5.30309 14.5941L5.09417 14.4168C5.06377 14.391 5.03217 14.3673 4.99958 14.3457L4.47831 13.9189C4.22565 13.712 4.23584 13.3225 4.49895 13.1291L16.2845 4.46789C16.5062 4.30494 16.8179 4.35178 16.982 4.57269ZM3.25112 14.8045C2.53637 13.9418 2.66578 12.6148 3.61067 11.9204L15.3962 3.25919C16.2831 2.60739 17.53 2.79473 18.1863 3.6784L22.3605 9.29945C23.031 10.2023 22.8255 11.4803 21.9058 12.1275L19.7829 13.6214L20.9252 15.2576C21.2422 15.7117 21.1298 16.3369 20.6745 16.6522L20.4031 16.8401L20.4606 16.9031C20.5013 16.948 20.5415 16.9926 20.5816 17.0372C20.6962 17.1645 20.8107 17.2917 20.9397 17.4262C21.2797 17.7807 21.6717 18.1322 22.1708 18.4037C23.0339 18.873 24.3514 19.1744 26.5 18.5407V16.75C26.5 16.3358 26.8358 16 27.25 16C27.6642 16 28 16.3358 28 16.75V24.75C28 25.1642 27.6642 25.5 27.25 25.5C26.8358 25.5 26.5 25.1642 26.5 24.75V23.0131C23.433 23.6166 21.2075 22.9568 19.601 21.9476C18.712 21.3891 18.0364 20.7389 17.5276 20.1891C17.3268 19.9721 17.1471 19.7652 16.9959 19.5911L16.9953 19.5904C16.9571 19.5464 16.9208 19.5045 16.8863 19.4651C16.8485 19.4219 16.8139 19.3826 16.7821 19.3469L15.8189 20.0138C15.3661 20.3272 14.745 20.2156 14.4297 19.764L13.3176 18.1711L11.3262 19.5724C10.5918 20.0892 9.60308 20.0531 8.90827 19.4843L8.8436 19.4313L6.26357 21.3293C5.8354 21.6443 5.23564 21.5692 4.89826 21.1585L1.67898 17.2391C1.3116 16.7919 1.3995 16.1271 1.8705 15.7907L3.25112 14.8045ZM21.4542 19.7214C22.6563 20.3752 24.2651 20.6681 26.5 20.0961V21.4807C23.6427 22.1145 21.7202 21.5074 20.3989 20.6774C19.663 20.2151 19.0886 19.6674 18.6286 19.1703C18.4455 18.9725 18.2855 18.7883 18.1357 18.6158L18.1356 18.6157L18.1353 18.6154L18.0238 18.4872L19.1556 17.7037C19.2103 17.7593 19.2739 17.8276 19.3499 17.9114C19.3829 17.9476 19.418 17.9866 19.455 18.0277L19.455 18.0278C19.5729 18.1588 19.7102 18.3113 19.8572 18.4645C20.2515 18.8756 20.7658 19.347 21.4542 19.7214ZM18.6254 14.5837L14.592 17.3761L15.3745 18.497L19.4079 15.7046L18.6254 14.5837ZM4.42059 15.8126L3.1776 16.7004L5.75653 19.8401L7.58286 18.4966L4.42059 15.8126ZM8.99998 14C9.55227 14 9.99998 13.5523 9.99998 13C9.99998 12.4477 9.55227 12 8.99998 12C8.4477 12 7.99998 12.4477 7.99998 13C7.99998 13.5523 8.4477 14 8.99998 14Z" fill="#4894DD"/>
</svg>
