<svg width="28" height="28" viewBox="0 0 28 28" fill="none" xmlns="http://www.w3.org/2000/svg">
<circle cx="14" cy="14" r="11" fill="#F9E3E7"/>
<path d="M9.82733 9.90216L8.19096 11.697L7.64551 12.4663L8.19096 14.5175L9.82733 17.0816L11.7364 18.8765L13.9182 19.6458L16.1001 18.3637L17.7364 17.0816L19.3728 15.0304L19.6455 12.2099L18.2819 10.1586L15.2819 9.64575L13.6455 10.6714L11.4637 9.64575L9.82733 9.90216Z" fill="white"/>
<path fill-rule="evenodd" clip-rule="evenodd" d="M2.35352 13.6458C2.35352 20.07 7.57518 25.2917 13.9993 25.2917C20.4235 25.2917 25.6452 20.07 25.6452 13.6458C25.6452 7.22167 20.4235 2 13.9993 2C7.57518 2 2.35352 7.22167 2.35352 13.6458ZM3.97852 13.6458C3.97852 8.12083 8.47435 3.625 13.9993 3.625C19.5243 3.625 24.0202 8.12083 24.0202 13.6458C24.0202 19.1708 19.5243 23.6667 13.9993 23.6667C8.47435 23.6667 3.97852 19.1708 3.97852 13.6458ZM13.4288 19.9109C13.5948 19.9703 13.7901 20 13.9951 20C14.1904 20 14.3955 19.9703 14.5614 19.9109C16.6705 19.1782 20 16.5841 20 12.7326C20 10.6733 18.3596 9 16.3385 9C15.4793 9 14.6591 9.30692 14.0049 9.86138C13.3507 9.30692 12.5403 9 11.6615 9C9.64036 9 8 10.6733 8 12.7326C8 16.594 11.3295 19.1881 13.4288 19.9109ZM9.45484 12.7425C9.45484 11.505 10.441 10.495 11.6517 10.495C12.3548 10.495 12.9894 10.8218 13.3995 11.396C13.6729 11.7723 14.2978 11.7723 14.5712 11.396C14.9813 10.8317 15.6355 10.495 16.319 10.495C17.5297 10.495 18.5159 11.505 18.5159 12.7425C18.5159 16.198 15.2254 18.1188 14.0732 18.5148C14.0342 18.5247 13.9365 18.5247 13.8975 18.5148C12.7453 18.1188 9.45484 16.198 9.45484 12.7425Z" fill="#E54F6D"/>
</svg>
