<svg width="112" height="42" viewBox="0 0 112 42" fill="none" xmlns="http://www.w3.org/2000/svg">
<g clip-path="url(#clip0_6_33)">
<path d="M105.254 0.850203H90.7391C90.7287 0.829468 90.2726 0.829468 89.4742 0.829468H76.4419C73.1035 0.860571 70.4182 3.57694 70.4078 6.91537C70.4078 13.5508 70.4182 21.6169 70.4078 24.8309C87.8154 32.5861 99.5725 27.0911 111.019 19.2842V6.93611C111.019 6.92574 111.019 6.92574 111.019 6.905C111.008 3.64951 108.458 1.00572 105.254 0.850203ZM105.783 10.8344C103.678 11.3321 91.8381 13.53 82.6211 18.7139C82.0198 19.0457 79.3345 20.7771 78.1526 18.8384C76.7322 16.5263 80.164 15.0437 81.8954 14.3491C93.6317 9.70431 103.937 8.75048 105.658 9.06151C106.042 9.13408 106.509 9.36218 106.591 9.95314C106.664 10.5337 106.239 10.7307 105.783 10.8344Z" fill="#223266"/>
<path d="M111.029 24.0326V35.3542C111.029 38.7238 108.302 41.4401 104.943 41.4401H76.5041C73.1346 41.4401 70.4182 38.7134 70.4182 35.3542V29.7556C87.1519 36.5258 98.1106 32.8038 111.029 24.0326Z" fill="#223266"/>
<path d="M31.2797 22.7055C32.3579 22.7055 33.0837 22.1145 33.0837 21.14C33.0837 20.4038 32.4927 19.7714 31.5182 19.7714C30.4399 19.7714 29.7142 20.3624 29.7142 21.337C29.7142 22.0731 30.2948 22.7055 31.2797 22.7055ZM24.7272 31.9432C24.2918 35.3128 25.8988 36.8783 29.4135 36.8783H41.5749L43.0368 26.6245H40.3515L39.1903 35.1676H29.963C28.0138 35.1676 27.174 33.996 27.4229 32.0469L27.7132 29.8489C28.0553 27.3606 28.5426 26.8734 30.3984 26.8734C32.2543 26.8734 33.1874 27.8998 33.1874 30.0459C33.1874 33.4155 31.6737 35.178 28.7914 35.178H17.0965C14.4113 35.178 13.4782 33.7576 13.8203 31.176L14.4527 26.6349H11.7675L11.135 31.176C10.5959 35.0847 12.3584 36.8887 16.8477 36.8887H29.4239C33.5295 36.8887 35.8208 34.4937 35.8208 30.2014C35.8208 26.8319 34.1101 25.173 30.5954 25.173C27.174 25.173 25.4634 26.5416 25.0279 29.766L24.7272 31.9432ZM41.0876 40.2893H32.783L32.5342 42H40.8492L41.0876 40.2893ZM14.8156 15.137C16.8166 15.137 17.8948 14.1624 18.237 11.7156L18.9731 6.58356H21.6584L20.9223 11.7571C20.5801 14.1002 21.1192 15.1266 23.6075 15.1266H44.0736C46.0746 15.1266 47.1528 14.1935 47.4949 11.7053L47.6401 10.6788C47.8889 8.96816 47.1528 7.8899 45.7324 7.8899H24.3436L24.6858 5.4431L35.0847 0L34.7425 2.4468L26.4379 6.54209L26.5312 6.0548H46.0642C49.0398 6.0548 50.7504 7.96248 50.3668 10.7411L50.2217 11.7675C49.8795 14.0588 50.8541 15.137 52.8551 15.137H54.9079L56.0899 6.59393H58.7751L57.3133 16.8477H52.43C49.2575 16.8477 48.1792 16.0701 47.7438 14.1624H48.7183C47.7852 16.0701 46.3752 16.8477 43.8869 16.8477H23.1721C19.7092 16.8477 18.7243 16.0701 18.4858 14.1624H19.4604C18.5273 16.0701 17.1173 16.8477 14.629 16.8477H7.78624C3.39028 16.8477 1.92842 15.137 2.36387 11.9126L2.65417 9.71464C3.09999 6.50062 4.707 5.13207 7.98322 5.13207C11.9437 5.13207 13.7477 7.57887 13.0635 12.4103L12.628 15.4895C11.9956 20.0306 10.233 21.9901 5.29796 21.9901H0.943481L1.19231 20.2794H5.29796C8.03506 20.2794 9.35178 19.1079 9.8909 15.4895L10.43 11.923C10.9692 8.46013 10.0361 6.84275 7.7966 6.84275C6.08592 6.84275 5.69194 7.33004 5.3498 9.81832L5.0595 12.0163C4.75884 14.1624 5.53642 15.137 7.98322 15.137H14.8156ZM16.3293 4.64478C17.4076 4.64478 18.1333 4.05381 18.1333 3.07924C18.1333 2.34313 17.5423 1.71069 16.5678 1.71069C15.4895 1.71069 14.7638 2.30165 14.7638 3.27623C14.7638 4.00197 15.3547 4.64478 16.3293 4.64478ZM59.9467 1.94915H51.8909L51.6006 3.65984H59.7082L59.9467 1.94915ZM48.6147 32.4823L50.3772 20.0306H47.6919L45.9294 32.4823H48.6147ZM48.8531 36.8783C53.0003 36.8783 54.8146 35.3128 55.2501 32.0884L56.9608 20.0202H54.2755L52.6166 32.0365C52.3263 34.1412 51.2481 35.1572 49.0501 35.1572H44.5609L44.312 36.8679H48.8531V36.8783Z" fill="#223266"/>
</g>
<defs>
<clipPath id="clip0_6_33">
<rect width="111.972" height="42" fill="white"/>
</clipPath>
</defs>
</svg>