<svg width="28" height="28" viewBox="0 0 28 28" fill="none" xmlns="http://www.w3.org/2000/svg">
<rect x="4.61621" y="6" width="18" height="10" fill="#F0E8F8"/>
<path d="M5 17H23L24 22.5H2.5L5 17Z" fill="white"/>
<path fill-rule="evenodd" clip-rule="evenodd" d="M6.01615 6.5H21.2161C21.4923 6.5 21.7161 6.72386 21.7161 7V15.98H5.51615V7C5.51615 6.72386 5.74 6.5 6.01615 6.5ZM4.01615 7C4.01615 5.89543 4.91158 5 6.01615 5H21.2161C22.3207 5 23.2161 5.89543 23.2161 7V16.0412L25.18 21.9654C25.3945 22.6126 24.9126 23.28 24.2308 23.28H3.00076C2.3189 23.28 1.837 22.6126 2.05155 21.9654L4.01576 16.04H4.01615V7ZM3.69326 21.78L5.09879 17.54H22.1327L23.5383 21.78H3.69326Z" fill="#AF89D0"/>
</svg>
