<svg xmlns="http://www.w3.org/2000/svg" width="28" height="28" viewBox="0 0 28 28" fill="none">
    <circle cx="22.5" cy="6.90186" r="2.5" fill="#F9E3E7"/>
    <circle cx="6.5" cy="6.90186" r="2.5" fill="#F9E3E7"/>
    <circle cx="18" cy="7.40186" r="2" fill="#F9E3E7"/>
    <circle cx="10" cy="7.40186" r="2" fill="#F9E3E7"/>
    <ellipse cx="10.5" cy="17.9019" rx="1.5" ry="3.5" fill="#F9E3E7"/>
    <path d="M10.4189 14.4373C9.99877 14.4373 9.65039 14.0806 9.65039 13.6504V8.63464C9.65039 8.20442 9.99877 7.84766 10.4189 7.84766C10.839 7.84766 11.1874 8.20442 11.1874 8.63464V13.6504C11.1874 14.0806 10.839 14.4373 10.4189 14.4373Z" fill="#E54F6D"/>
    <path d="M10.4189 24.9304C9.99877 24.9304 9.65039 24.5736 9.65039 24.1434V20.9955C9.65039 20.5653 9.99877 20.2085 10.4189 20.2085C10.839 20.2085 11.1874 20.5653 11.1874 20.9955V24.1434C11.1874 24.5736 10.839 24.9304 10.4189 24.9304Z" fill="#E54F6D"/>
    <path d="M17.5917 24.9304C17.1716 24.9304 16.8232 24.5736 16.8232 24.1434V8.63464C16.8232 8.20442 17.1716 7.84766 17.5917 7.84766C18.0118 7.84766 18.3602 8.20442 18.3602 8.63464V24.1434C18.3602 24.5736 18.0118 24.9304 17.5917 24.9304Z" fill="#E54F6D"/>
    <path d="M10.2133 9.29579H7.90777C7.61062 9.29579 7.35447 9.12791 7.22127 8.85509C7.08806 8.58227 7.11881 8.2675 7.29301 8.02616C7.48769 7.76383 7.60038 7.42804 7.60038 7.08176V6.13743C7.60038 5.80165 7.48769 5.46584 7.29301 5.19302C7.11881 4.95168 7.08806 4.63691 7.22127 4.36409C7.35447 4.10176 7.62087 3.92334 7.90777 3.92334H10.2133C11.658 3.92334 12.8261 5.1196 12.8261 6.59912C12.8261 7.32315 12.5495 7.9947 12.0474 8.49837C11.5761 9.01253 10.9203 9.29579 10.2133 9.29579ZM9.0759 7.72183H10.2133C10.5002 7.72183 10.7666 7.60642 10.9613 7.40705C11.1764 7.19719 11.2892 6.92437 11.2892 6.62007C11.2892 6.01147 10.8076 5.51831 10.2133 5.51831H9.0759C9.11689 5.72817 9.13737 5.93801 9.13737 6.14787V7.09227C9.13737 7.30213 9.11689 7.51197 9.0759 7.72183Z" fill="#E54F6D"/>
    <path d="M6.06372 10.2402C5.38744 10.2402 4.48574 10.0199 3.54306 9.15942C3.22541 8.86561 3 8.34099 3 7.8793V5.4239C3 5.01467 3.18444 4.53199 3.45085 4.24868C4.40378 3.23085 5.38745 3.01049 6.04324 3C6.05348 3 6.06373 3 6.07398 3C6.88346 3 7.68268 3.33578 8.24624 3.92339C8.34871 4.02832 8.45118 4.15427 8.5434 4.28019C8.92253 4.79435 9.13769 5.46587 9.13769 6.14792V7.09232C9.13769 7.77437 8.92251 8.44591 8.52289 8.98106C8.01056 9.68409 7.22156 10.1353 6.3711 10.2192C6.27888 10.2297 6.16618 10.2402 6.06372 10.2402ZM6.06372 4.57396C6.05347 4.57396 6.05348 4.57396 6.04324 4.57396C5.52066 4.58445 5.0083 4.84682 4.5472 5.34C4.5472 5.34 4.52673 5.41342 4.52673 5.4449V7.8898C4.52673 7.91079 4.55745 7.98424 4.57794 8.01572C5.10052 8.48791 5.67434 8.72924 6.21741 8.66628C6.64776 8.62431 7.02691 8.40393 7.29332 8.04717C7.488 7.78484 7.60071 7.44909 7.60071 7.10282V6.15842C7.60071 5.82265 7.488 5.4869 7.29332 5.21408C7.24209 5.13013 7.19083 5.08812 7.14985 5.03566C6.86294 4.74185 6.47358 4.57396 6.06372 4.57396Z" fill="#E54F6D"/>
    <path d="M20.102 9.29578H17.7965C17.0895 9.29578 16.4337 9.01252 15.9418 8.49836C15.4603 8.01568 15.1836 7.34408 15.1836 6.62006C15.1836 5.14054 16.3517 3.94434 17.7965 3.94434H20.102C20.3889 3.94434 20.6553 4.1122 20.7885 4.38502C20.9217 4.64735 20.8909 4.97268 20.7167 5.21402C20.5221 5.47635 20.4094 5.81209 20.4094 6.15836V7.10276C20.4094 7.44903 20.5221 7.77427 20.7167 8.04709C20.8909 8.28843 20.9217 8.60327 20.7885 8.87609C20.6655 9.12792 20.3991 9.29578 20.102 9.29578ZM17.7965 5.5183C17.2022 5.5183 16.7206 6.01146 16.7206 6.62006C16.7206 6.91386 16.8333 7.18673 17.028 7.38609C17.2329 7.60645 17.4993 7.72182 17.7965 7.72182H18.9338C18.8929 7.51196 18.8724 7.30212 18.8724 7.09226V6.14786C18.8724 5.938 18.8929 5.72816 18.9338 5.5183H17.7965Z" fill="#E54F6D"/>
    <path d="M21.9465 10.24C21.8338 10.24 21.7313 10.2295 21.6289 10.2295C20.7784 10.1456 19.9997 9.69436 19.4771 8.99132C19.0775 8.45618 18.8623 7.78463 18.8623 7.10258V6.15817C18.8623 5.47612 19.0775 4.80459 19.4771 4.26944C19.5488 4.16451 19.6513 4.03859 19.7538 3.93365C20.3276 3.34604 21.1167 3.01025 21.9261 3.01025C21.9364 3.01025 21.9466 3.01025 21.9569 3.01025C22.6127 3.02075 23.5963 3.24111 24.5493 4.25894C24.8157 4.54225 25.0001 5.02492 25.0001 5.43415V7.88956C25.0001 8.35126 24.7747 8.87587 24.457 9.15918C23.5246 10.0196 22.6228 10.24 21.9465 10.24ZM21.9465 4.57371C21.5367 4.57371 21.137 4.74161 20.8604 5.03542C20.8194 5.07739 20.7785 5.12986 20.7375 5.18233C20.5224 5.47614 20.4095 5.81189 20.4095 6.14767V7.09208C20.4095 7.43835 20.5223 7.76366 20.7169 8.03648C20.9833 8.39324 21.3626 8.61357 21.7929 8.66604C22.336 8.729 22.9098 8.48764 23.4631 7.99446C23.4631 7.99446 23.4836 7.92104 23.4939 7.88956V5.44466C23.4939 5.42367 23.463 5.35024 23.4528 5.32925C23.0122 4.85707 22.4998 4.59472 21.9773 4.59472C21.9568 4.57373 21.9568 4.57371 21.9465 4.57371Z" fill="#E54F6D"/>
    <path d="M10.4188 21.7826C9.14819 21.7826 8.11328 20.7228 8.11328 19.4217V15.2245C8.11328 13.9233 9.14819 12.8635 10.4188 12.8635C11.6893 12.8635 12.7242 13.9233 12.7242 15.2245V19.4217C12.7242 20.7228 11.6893 21.7826 10.4188 21.7826ZM10.4188 14.4375C9.99865 14.4375 9.65027 14.7942 9.65027 15.2245V19.4217C9.65027 19.8519 9.99865 20.2087 10.4188 20.2087C10.8389 20.2087 11.1873 19.8519 11.1873 19.4217V15.2245C11.1873 14.7942 10.8389 14.4375 10.4188 14.4375Z" fill="#E54F6D"/>
</svg>