<svg width="28" height="28" viewBox="0 0 28 28" fill="none" xmlns="http://www.w3.org/2000/svg">
<ellipse cx="14.5" cy="14" rx="7.5" ry="7" fill="#DDF3FF"/>
<path d="M15.6333 17.0332C15.4117 17.0332 15.19 16.9516 15.015 16.7766L13.3817 15.1432C13.2183 14.9799 13.125 14.7582 13.125 14.5249V11.2699C13.125 10.7916 13.5217 10.3949 14 10.3949C14.4783 10.3949 14.875 10.7916 14.875 11.2699V14.1632L16.2517 15.5399C16.59 15.8782 16.59 16.4382 16.2517 16.7766C16.0767 16.9516 15.855 17.0332 15.6333 17.0332Z" fill="#4894DD"/>
<path fill-rule="evenodd" clip-rule="evenodd" d="M16.7654 3.6H11.2345C11.0355 3.6 10.8667 3.74637 10.8386 3.94343L10.5056 6.27404C11.1265 5.98746 11.7878 5.77394 12.4785 5.64455C13.2564 5.48562 14.0534 5.44987 14.8398 5.53728C15.7751 5.62508 16.6664 5.86556 17.4885 6.23351L17.1613 3.94343C17.1332 3.74637 16.9644 3.6 16.7654 3.6ZM8.75813 7.19279C8.74981 7.25103 8.74653 7.30824 8.74788 7.36412C6.81906 8.91524 5.58331 11.2942 5.58331 13.9583C5.58331 16.5434 6.73836 18.9489 8.75161 20.5704C8.74473 20.6468 8.74653 20.726 8.75813 20.8072L9.25465 24.2828C9.39541 25.2681 10.2392 26 11.2345 26H16.7654C17.7607 26 18.6045 25.2681 18.7453 24.2828L19.2418 20.8072C19.2506 20.7456 19.2537 20.6852 19.2518 20.6263C21.3126 19.0047 22.5 16.5805 22.5 13.9583C22.5 11.2557 21.2283 8.84661 19.2515 7.29746C19.25 7.26299 19.2468 7.22808 19.2418 7.19279L18.7453 3.71716C18.6045 2.73186 17.7607 2 16.7654 2H11.2345C10.2392 2 9.39541 2.73186 9.25465 3.71716L8.75813 7.19279ZM17.0828 21.8559C17.2235 21.8016 17.3628 21.7436 17.5006 21.6817L17.1613 24.0566C17.1332 24.2536 16.9644 24.4 16.7654 24.4H11.2345C11.0355 24.4 10.8667 24.2536 10.8386 24.0566L10.497 21.6653L10.8551 21.828C12.8326 22.7269 15.0993 22.7362 17.0828 21.8559ZM9.87665 19.22C9.88603 19.2263 9.89457 19.2317 9.9025 19.2367C9.92415 19.2504 9.94123 19.2613 9.95831 19.2783C12.3266 21.11 15.8033 21.0983 18.16 19.255C18.1833 19.2317 18.2183 19.2083 18.2416 19.1967C19.84 17.9133 20.75 16.0117 20.75 13.9583C20.75 10.26 17.74 7.25 14.0416 7.25C10.3433 7.25 7.33331 10.26 7.33331 13.9583C7.33331 16.0233 8.25498 17.9367 9.87665 19.22Z" fill="#4894DD"/>
</svg>
