<svg width="28" height="28" viewBox="0 0 28 28" fill="none" xmlns="http://www.w3.org/2000/svg">
<g id="&#218;&#169;&#216;&#167;&#217;&#133;&#217;&#190;&#219;&#140;&#217;&#136;&#216;&#170;&#216;&#177;">
<rect id="Rectangle 8479" x="5" y="2" width="18" height="24" rx="2" fill="#F0E8F8"/>
<rect id="Rectangle 9234" x="4.85" y="1.85" width="18.3" height="24.3" rx="3.15" stroke="#AF89D0" stroke-width="1.7"/>
<path id="Rectangle 9235" d="M10 5.65C10 5.29101 10.291 5 10.65 5H17.35C17.709 5 18 5.29101 18 5.65C18 6.00898 17.709 6.3 17.35 6.3H10.65C10.291 6.3 10 6.00898 10 5.65Z" fill="#AF89D0"/>
<path id="Rectangle 9236" d="M10 7.85001C10 7.49103 10.291 7.20001 10.65 7.20001H17.35C17.709 7.20001 18 7.49103 18 7.85001C18 8.209 17.709 8.50001 17.35 8.50001H10.65C10.291 8.50001 10 8.209 10 7.85001Z" fill="#AF89D0"/>
<path id="Vector 605" d="M19.2572 16.4971L23 15V23C23 24.6569 21.6569 26 20 26H18V18.3541C18 17.5363 18.4979 16.8008 19.2572 16.4971Z" fill="white" stroke="#AF89D0" stroke-width="1.5"/>
<path id="Vector 606" d="M8.74278 16.4971L5 15V23C5 24.6569 6.34315 26 8 26H10V18.3541C10 17.5363 9.5021 16.8008 8.74278 16.4971Z" fill="white" stroke="#AF89D0" stroke-width="1.5"/>
<g id="Group">
<g id="Group_2">
<path id="Vector" d="M11.6084 15.1643C11.53 14.3201 11.8905 13.5554 12.4885 13.0696C12.7216 12.8801 13.0702 13.0424 13.0702 13.3419C13.0702 13.452 13.0179 13.5533 12.933 13.6219C12.5092 13.9672 12.2544 14.5118 12.3164 15.1131C12.397 15.8962 13.0245 16.5302 13.8065 16.6173C14.8272 16.7317 15.6942 15.9322 15.6942 14.9344C15.6942 14.4051 15.4491 13.9312 15.0668 13.6208C14.9818 13.5522 14.9306 13.4509 14.9306 13.3419C14.9306 13.0457 15.2737 12.8779 15.5047 13.0631C16.0515 13.5042 16.4022 14.1785 16.4022 14.9344C16.4022 16.3167 15.228 17.431 13.824 17.3297C12.6628 17.248 11.7163 16.3232 11.6084 15.1643ZM13.9993 12C13.8033 12 13.6453 12.159 13.6453 12.354V13.9846C13.6453 14.1807 13.8044 14.3386 13.9993 14.3386C14.1943 14.3386 14.3533 14.1796 14.3533 13.9846V12.354C14.3533 12.159 14.1954 12 13.9993 12Z" fill="#AF89D0" stroke="#AF89D0" stroke-width="0.3"/>
</g>
</g>
</g>
</svg>
