<svg width="28" height="28" viewBox="0 0 28 28" fill="none" xmlns="http://www.w3.org/2000/svg">
<rect x="3" y="15" width="22" height="9" rx="4.5" fill="#D7F8F3"/>
<rect x="2.85" y="14.85" width="22.3" height="9.3" rx="4.65" stroke="#71BEB5" stroke-width="1.7"/>
<path d="M20.5 19.5C20.5 19.7761 20.2761 20 20 20C19.7239 20 19.5 19.7761 19.5 19.5C19.5 19.2239 19.7239 19 20 19C20.2761 19 20.5 19.2239 20.5 19.5Z" fill="#D9D9D9" stroke="#71BEB5"/>
<path d="M17.5 19.5C17.5 19.7761 17.2761 20 17 20C16.7239 20 16.5 19.7761 16.5 19.5C16.5 19.2239 16.7239 19 17 19C17.2761 19 17.5 19.2239 17.5 19.5Z" fill="#D9D9D9" stroke="#71BEB5"/>
<path d="M14.5 19.5C14.5 19.7761 14.2761 20 14 20C13.7239 20 13.5 19.7761 13.5 19.5C13.5 19.2239 13.7239 19 14 19C14.2761 19 14.5 19.2239 14.5 19.5Z" fill="#D9D9D9" stroke="#71BEB5"/>
<path d="M19.3314 5.74153C19.1892 5.74153 19.0469 5.69251 18.9224 5.58467C15.9261 3.03577 12.0585 3.03577 9.07107 5.58467C8.77766 5.82976 8.35979 5.77094 8.13751 5.45723C7.91523 5.13371 7.96858 4.67295 8.25309 4.42787C11.7384 1.45739 16.2462 1.45739 19.7404 4.42787C20.0338 4.67295 20.0872 5.13371 19.856 5.45723C19.7315 5.6435 19.527 5.74153 19.3314 5.74153Z" fill="#71BEB5" stroke="#71BEB5" stroke-width="0.4"/>
<path d="M17.9084 8.77133C17.7662 8.77133 17.6239 8.72231 17.4994 8.61447C15.3656 6.80082 12.6182 6.80082 10.4843 8.61447C10.1909 8.85956 9.773 8.80074 9.55072 8.48703C9.32844 8.16351 9.38179 7.70274 9.6663 7.45765C12.2892 5.22245 15.6856 5.22245 18.3085 7.45765C18.6019 7.70274 18.6553 8.16351 18.4241 8.48703C18.3085 8.67329 18.1129 8.77133 17.9084 8.77133Z" fill="#71BEB5" stroke="#71BEB5" stroke-width="0.4"/>
<path d="M15.9522 11.8003C15.81 11.8003 15.6677 11.7512 15.5432 11.6434C14.6008 10.8395 13.3827 10.8395 12.4402 11.6434C12.1468 11.8885 11.7289 11.8297 11.5066 11.516C11.2844 11.1924 11.3377 10.7317 11.6222 10.4866C13.0359 9.28076 14.9386 9.28076 16.3523 10.4866C16.6457 10.7317 16.6991 11.1924 16.4679 11.516C16.3523 11.7022 16.1567 11.8003 15.9522 11.8003Z" fill="#71BEB5" stroke="#71BEB5" stroke-width="0.4"/>
<rect x="1.50183" y="6.75745" width="1.5" height="7" rx="0.75" transform="rotate(-30 1.50183 6.75745)" fill="#71BEB5"/>
<rect x="25.0013" y="6" width="1.5" height="7" rx="0.75" transform="rotate(30 25.0013 6)" fill="#71BEB5"/>
</svg>
