<svg width="28" height="28" viewBox="0 0 28 28" fill="none" xmlns="http://www.w3.org/2000/svg">
<rect x="6" y="1" width="16" height="10" rx="1" fill="white"/>
<rect x="6" y="11" width="16" height="15" rx="1" fill="#F0E8F8"/>
<path fill-rule="evenodd" clip-rule="evenodd" d="M11 1.7H17C18.4623 1.7 19.388 1.70361 20.0653 1.79468C20.6937 1.87917 20.8484 2.00993 20.9192 2.08076C20.9901 2.15159 21.1208 2.30627 21.2053 2.93471C21.2964 3.61204 21.3 4.53773 21.3 6V10.0001L6.7 10.0001V6C6.7 4.53773 6.70361 3.61204 6.79468 2.93471C6.87917 2.30627 7.00993 2.15159 7.08076 2.08076C7.15159 2.00993 7.30627 1.87917 7.93471 1.79468C8.61204 1.70361 9.53773 1.7 11 1.7ZM6.7 11.5001V21C6.7 22.4623 6.70361 23.388 6.79468 24.0653C6.87917 24.6937 7.00993 24.8484 7.08076 24.9192C7.15159 24.9901 7.30627 25.1208 7.93471 25.2053C8.61204 25.2964 9.53773 25.3 11 25.3H17C18.4623 25.3 19.388 25.2964 20.0653 25.2053C20.6937 25.1208 20.8484 24.9901 20.9192 24.9192C20.9901 24.8484 21.1208 24.6937 21.2053 24.0653C21.2964 23.388 21.3 22.4623 21.3 21V11.5001L6.7 11.5001ZM23 11.5001V21C23 23.8284 23 25.2426 22.1213 26.1213C21.631 26.6117 20.9738 26.8284 19.9972 26.9242C19.999 26.9492 20 26.9745 20 27C20 27.5523 19.5523 28 19 28H18C17.4477 28 17 27.5523 17 27H11C11 27.5523 10.5523 28 10 28H9C8.44772 28 8 27.5523 8 27C8 26.9745 8.00096 26.9492 8.00284 26.9242C7.02619 26.8284 6.36904 26.6117 5.87868 26.1213C5 25.2426 5 23.8284 5 21V6C5 3.17157 5 1.75736 5.87868 0.87868C6.75736 0 8.17157 0 11 0H17C19.8284 0 21.2426 0 22.1213 0.87868C23 1.75736 23 3.17157 23 6V10.0001V11.5001ZM9 8.75C8.58579 8.75 8.25 8.41421 8.25 8L8.25 4C8.25 3.58579 8.58579 3.25 9 3.25C9.41421 3.25 9.75 3.58579 9.75 4V8C9.75 8.41421 9.41421 8.75 9 8.75ZM8.25 21C8.25 21.4142 8.58579 21.75 9 21.75C9.41421 21.75 9.75 21.4142 9.75 21L9.75 15C9.75 14.5858 9.41421 14.25 9 14.25C8.58579 14.25 8.25 14.5858 8.25 15L8.25 21Z" fill="#AF89D0"/>
</svg>
