<svg width="28" height="28" viewBox="0 0 28 28" fill="none" xmlns="http://www.w3.org/2000/svg">
<rect x="1" y="5" width="26" height="16" fill="#D7F8F3"/>
<path fill-rule="evenodd" clip-rule="evenodd" d="M4 5.5H24C25.3807 5.5 26.5 6.61929 26.5 8V18C26.5 19.3807 25.3807 20.5 24 20.5H4C2.61929 20.5 1.5 19.3807 1.5 18V8C1.5 6.61929 2.61929 5.5 4 5.5ZM0 8C0 5.79086 1.79086 4 4 4H24C26.2091 4 28 5.79086 28 8V18C28 20.2091 26.2091 22 24 22H16.5V23.5H19.25C19.6642 23.5 20 23.8358 20 24.25C20 24.6642 19.6642 25 19.25 25H8.75C8.33579 25 8 24.6642 8 24.25C8 23.8358 8.33579 23.5 8.75 23.5H11.5V22H4C1.79086 22 0 20.2091 0 18V8ZM13 23.5H15V22H13V23.5Z" fill="#71BEB5"/>
</svg>
