<svg width="28" height="28" viewBox="0 0 28 28" fill="none" xmlns="http://www.w3.org/2000/svg">
<path d="M6.77421 7.08579C3.42102 8.51888 2.21453 16.2461 2.0118 20.2448C2.00323 20.4139 2.03973 20.5795 2.11545 20.7309L2.27227 21.0445C2.41535 21.3307 2.68671 21.5311 3.0023 21.5837L5.09142 21.9319C5.35303 21.9755 5.62124 21.9134 5.83706 21.7592L8.93615 19.5456C8.97865 19.5152 9.02346 19.4883 9.07018 19.4649L11.7889 18.1056C11.9277 18.0361 12.0808 18 12.2361 18H15.3074C15.4346 18 15.5607 18.0243 15.6788 18.0715L17.8772 18.9509C17.9587 18.9835 18.0356 19.0267 18.1058 19.0794L21.6686 21.7515C21.8808 21.9106 22.1475 21.9789 22.41 21.9414L24.7439 21.608C25.1903 21.5442 25.5388 21.1896 25.5947 20.7421L25.981 17.6521C25.9936 17.5513 25.9908 17.4491 25.9726 17.3492L25.0256 12.1406C25.0086 12.0473 24.9785 11.957 24.9361 11.8722L23.1852 8.37048C23.0666 8.13327 22.8586 7.95288 22.607 7.86901L20.2293 7.07645C20.0786 7.02621 19.9181 7.0126 19.7611 7.03676L13.6521 7.97661C13.5513 7.99211 13.4487 7.99211 13.3479 7.97661L7.23894 7.03676C7.08191 7.0126 6.9203 7.02335 6.77421 7.08579Z" fill="#F9E3E7"/>
<path fill-rule="evenodd" clip-rule="evenodd" d="M19.16 7.33495C18.4999 7.43509 17.7266 7.60328 16.9359 7.79422C14.9487 8.27413 12.8923 8.24521 10.9188 7.78765C10.6082 7.71563 10.3215 7.65254 10.0576 7.59745C8.34272 7.23944 6.67703 7.33721 5.67611 8.32728C4.59316 9.39849 3.84814 11.1477 3.38004 13.0642C2.91685 14.9606 2.75 16.915 2.75 18.2888C2.75 18.8764 2.80476 19.3527 2.8903 19.7359C3.02231 20.3274 3.43472 20.6751 4.02683 20.7993C4.64742 20.9294 5.42515 20.7919 6.0737 20.3773C6.23366 20.275 6.3935 20.1666 6.55212 20.0538C6.87067 19.827 7.20619 19.5745 7.55171 19.3145L7.55173 19.3145L7.55177 19.3144L7.55179 19.3144C8.17718 18.8437 8.83531 18.3484 9.48474 17.9369C10.5297 17.2748 11.698 16.7242 13.0486 16.6159C14.283 16.517 15.3992 16.6479 16.315 16.8713C17.7247 17.215 18.8508 18.1426 19.8004 18.9248L19.8766 18.9876C20.6855 19.6534 21.3734 20.1413 21.9455 20.4926C22.5616 20.8708 23.2814 20.9814 23.8597 20.8469C24.4141 20.7179 24.8179 20.3776 24.9656 19.8102C25.109 19.2591 25.1612 18.6852 25.1612 18.2888V18.2778L25.1615 18.2669C25.4011 10.0487 21.8851 7.5708 20.5357 7.26828L20.6998 6.53645L20.5357 7.26828C20.3128 7.2183 19.8525 7.22988 19.16 7.33495ZM18.935 5.85192C19.6265 5.747 20.3386 5.68685 20.8639 5.80461C23.1922 6.3266 26.9087 9.70168 26.6612 18.3C26.6603 18.8029 26.5961 19.5007 26.4172 20.1882C26.1089 21.3723 25.2147 22.0717 24.1996 22.3079C23.2082 22.5385 22.087 22.3396 21.1607 21.7709C20.5194 21.3772 19.7754 20.8471 18.9234 20.1457C17.8997 19.3032 17.0149 18.5859 15.9596 18.3286C15.1824 18.139 14.2271 18.0263 13.1685 18.1111C12.1598 18.192 11.2315 18.6059 10.2876 19.2039C9.67891 19.5896 9.11981 20.0115 8.53611 20.4519L8.53607 20.4519L8.53603 20.452C8.17947 20.721 7.81373 20.997 7.4219 21.2758C7.24495 21.4018 7.06447 21.5242 6.88164 21.6411C5.92951 22.2498 4.75448 22.4844 3.71903 22.2673C2.6551 22.0443 1.70817 21.3254 1.42633 20.0627C1.31317 19.5557 1.25 18.968 1.25 18.2888C1.25 16.8143 1.42699 14.7385 1.92288 12.7082C2.41388 10.698 3.2432 8.62396 4.62125 7.26085C6.18972 5.70939 8.54128 5.74855 10.3641 6.12911C10.6395 6.18659 10.9369 6.25207 11.2576 6.32641C13.022 6.73548 14.8411 6.757 16.5838 6.33614C17.3884 6.14182 18.211 5.96177 18.935 5.85192ZM19.6793 10.2979C19.5717 10.2979 19.5056 10.3825 19.5056 10.4608C19.5056 10.5391 19.5717 10.6237 19.6793 10.6237C19.7869 10.6237 19.8531 10.5391 19.8531 10.4608C19.8531 10.3825 19.7869 10.2979 19.6793 10.2979ZM19.6793 11.6979C20.3566 11.6979 20.9056 11.144 20.9056 10.4608C20.9056 9.77758 20.3566 9.22372 19.6793 9.22372C19.0021 9.22372 18.4531 9.77758 18.4531 10.4608C18.4531 11.144 19.0021 11.6979 19.6793 11.6979ZM19.5056 15.4086C19.5056 15.3303 19.5717 15.2457 19.6793 15.2457C19.7869 15.2457 19.8531 15.3303 19.8531 15.4086C19.8531 15.487 19.7869 15.5716 19.6793 15.5716C19.5717 15.5716 19.5056 15.487 19.5056 15.4086ZM20.9056 15.4086C20.9056 16.0919 20.3566 16.6457 19.6793 16.6457C19.0021 16.6457 18.4531 16.0919 18.4531 15.4086C18.4531 14.7254 19.0021 14.1716 19.6793 14.1716C20.3566 14.1716 20.9056 14.7254 20.9056 15.4086ZM22.1305 12.7717C22.0229 12.7717 21.9567 12.8563 21.9567 12.9346C21.9567 13.0129 22.0229 13.0975 22.1305 13.0975C22.2381 13.0975 22.3043 13.0129 22.3043 12.9346C22.3043 12.8563 22.2381 12.7717 22.1305 12.7717ZM22.1305 14.1717C22.8077 14.1717 23.3567 13.6178 23.3567 12.9346C23.3567 12.2514 22.8077 11.6975 22.1305 11.6975C21.4533 11.6975 20.9043 12.2514 20.9043 12.9346C20.9043 13.6178 21.4533 14.1717 22.1305 14.1717ZM17.0524 12.9346C17.0524 12.8563 17.1186 12.7717 17.2262 12.7717C17.3338 12.7717 17.4 12.8563 17.4 12.9346C17.4 13.0129 17.3338 13.0975 17.2262 13.0975C17.1186 13.0975 17.0524 13.0129 17.0524 12.9346ZM18.4524 12.9346C18.4524 13.6178 17.9034 14.1717 17.2262 14.1717C16.549 14.1717 16 13.6178 16 12.9346C16 12.2514 16.549 11.6975 17.2262 11.6975C17.9034 11.6975 18.4524 12.2514 18.4524 12.9346ZM8.75 11.2498C9.02614 11.2498 9.25 11.026 9.25 10.7498C9.25 10.4737 9.02614 10.2498 8.75 10.2498C8.47386 10.2498 8.25 10.4737 8.25 10.7498C8.25 11.026 8.47386 11.2498 8.75 11.2498ZM4.75 12.7498C4.75 11.6453 5.64543 10.7498 6.75 10.7498C6.75 9.64528 7.64543 8.74985 8.75 8.74985C9.85457 8.74985 10.75 9.64528 10.75 10.7498C11.8546 10.7498 12.75 11.6453 12.75 12.7498C12.75 13.8544 11.8546 14.7498 10.75 14.7498C10.75 15.8544 9.85457 16.7498 8.75 16.7498C7.64543 16.7498 6.75 15.8544 6.75 14.7498C5.64543 14.7498 4.75 13.8544 4.75 12.7498ZM11.25 12.7498C11.25 13.026 11.0261 13.2498 10.75 13.2498C10.4739 13.2498 10.25 13.026 10.25 12.7498C10.25 12.4737 10.4739 12.2498 10.75 12.2498C11.0261 12.2498 11.25 12.4737 11.25 12.7498ZM6.75 13.2498C7.02614 13.2498 7.25 13.026 7.25 12.7498C7.25 12.4737 7.02614 12.2498 6.75 12.2498C6.47386 12.2498 6.25 12.4737 6.25 12.7498C6.25 13.026 6.47386 13.2498 6.75 13.2498ZM9.25 14.7498C9.25 15.026 9.02614 15.2498 8.75 15.2498C8.47386 15.2498 8.25 15.026 8.25 14.7498C8.25 14.4737 8.47386 14.2498 8.75 14.2498C9.02614 14.2498 9.25 14.4737 9.25 14.7498Z" fill="#E54F6D"/>
<path fill-rule="evenodd" clip-rule="evenodd" d="M8.76988 10.3153C8.35466 10.3125 8.01574 10.6467 8.01288 11.062L8.00641 12.0002L7.00148 11.9974C6.58811 11.9963 6.2521 12.3305 6.25098 12.7439C6.24986 13.1573 6.58405 13.4933 6.99742 13.4944L7.99608 13.4971L7.98877 14.5571C7.9859 14.9723 8.32018 15.3112 8.7354 15.3141C9.15061 15.3169 9.48953 14.9827 9.4924 14.5675L9.49975 13.5012L10.4999 13.5039C10.9133 13.505 11.2493 13.1708 11.2504 12.7575C11.2515 12.3441 10.9173 12.0081 10.504 12.007L9.51008 12.0043L9.51651 11.0723C9.51937 10.6571 9.1851 10.3182 8.76988 10.3153Z" fill="#F8F8F8"/>
</svg>
