<?xml version="1.0" encoding="utf-8"?>
<!-- Generator: Adobe Illustrator 24.3.0, SVG Export Plug-In . SVG Version: 6.00 Build 0)  -->
<svg version="1.1" id="Layer_1" xmlns="http://www.w3.org/2000/svg" xmlns:xlink="http://www.w3.org/1999/xlink" x="0px" y="0px"
	 viewBox="0 0 1080 405.1" style="enable-background:new 0 0 1080 405.1;" xml:space="preserve">
<style type="text/css">
	.st0{fill:#FFFFFF;}
</style>
<g>
	<g>
		<path class="st0" d="M1015.2,8.2h-140C875.1,8,870.7,8,863,8H737.3c-32.2,0.3-58.1,26.5-58.2,58.7c0,64,0.1,141.8,0,172.8
			c167.9,74.8,281.3,21.8,391.7-53.5V66.9c0-0.1,0-0.1,0-0.3C1070.7,35.2,1046.1,9.7,1015.2,8.2z M1020.3,104.5
			c-20.3,4.8-134.5,26-223.4,76c-5.8,3.2-31.7,19.9-43.1,1.2c-13.7-22.3,19.4-36.6,36.1-43.3c113.2-44.8,212.6-54,229.2-51
			c3.7,0.7,8.2,2.9,9,8.6C1028.8,101.6,1024.7,103.5,1020.3,104.5z"/>
		<path class="st0" d="M1070.9,231.8V341c0,32.5-26.3,58.7-58.7,58.7H737.9c-32.5,0-58.7-26.3-58.7-58.7v-54
			C840.6,352.3,946.3,316.4,1070.9,231.8z"/>
	</g>
	<path class="st0" d="M301.7,219c10.4,0,17.4-5.7,17.4-15.1c0-7.1-5.7-13.2-15.1-13.2c-10.4,0-17.4,5.7-17.4,15.1
		C286.6,212.9,292.2,219,301.7,219 M238.5,308.1c-4.2,32.5,11.3,47.6,45.2,47.6h117.3l14.1-98.9h-25.9L378,339.2h-89
		c-18.8,0-26.9-11.3-24.5-30.1l2.8-21.2c3.3-24,8-28.7,25.9-28.7c17.9,0,26.9,9.9,26.9,30.6c0,32.5-14.6,49.5-42.4,49.5H164.9
		c-25.9,0-34.9-13.7-31.6-38.6l6.1-43.8h-25.9l-6.1,43.8c-5.2,37.7,11.8,55.1,55.1,55.1h121.3c39.6,0,61.7-23.1,61.7-64.5
		c0-32.5-16.5-48.5-50.4-48.5c-33,0-49.5,13.2-53.7,44.3L238.5,308.1z M396.3,388.6h-80.1l-2.4,16.5H394L396.3,388.6z M142.9,146
		c19.3,0,29.7-9.4,33-33l7.1-49.5h25.9l-7.1,49.9c-3.3,22.6,1.9,32.5,25.9,32.5h197.4c19.3,0,29.7-9,33-33l1.4-9.9
		c2.4-16.5-4.7-26.9-18.4-26.9H234.8l3.3-23.6L338.4,0l-3.3,23.6L255,63.1l0.9-4.7h188.4c28.7,0,45.2,18.4,41.5,45.2l-1.4,9.9
		c-3.3,22.1,6.1,32.5,25.4,32.5h19.8L541,63.6h25.9l-14.1,98.9h-47.1c-30.6,0-41-7.5-45.2-25.9h9.4c-9,18.4-22.6,25.9-46.6,25.9
		H223.5c-33.4,0-42.9-7.5-45.2-25.9h9.4c-9,18.4-22.6,25.9-46.6,25.9H75.1c-42.4,0-56.5-16.5-52.3-47.6l2.8-21.2
		C29.9,62.7,45.4,49.5,77,49.5c38.2,0,55.6,23.6,49,70.2l-4.2,29.7c-6.1,43.8-23.1,62.7-70.7,62.7H9.1l2.4-16.5h39.6
		c26.4,0,39.1-11.3,44.3-46.2l5.2-34.4c5.2-33.4-3.8-49-25.4-49c-16.5,0-20.3,4.7-23.6,28.7l-2.8,21.2C45.9,136.6,53.4,146,77,146
		H142.9z M157.5,44.8c10.4,0,17.4-5.7,17.4-15.1c0-7.1-5.7-13.2-15.1-13.2c-10.4,0-17.4,5.7-17.4,15.1
		C142.4,38.6,148.1,44.8,157.5,44.8 M578.2,18.8h-77.7l-2.8,16.5h78.2L578.2,18.8z M468.9,313.3l17-120.1h-25.9l-17,120.1H468.9z
		 M471.2,355.7c40,0,57.5-15.1,61.7-46.2l16.5-116.4h-25.9l-16,115.9c-2.8,20.3-13.2,30.1-34.4,30.1h-43.3l-2.4,16.5H471.2z"/>
</g>
</svg>
