<svg width="35" height="34" viewBox="0 0 35 34" fill="none" xmlns="http://www.w3.org/2000/svg">
<path d="M29.2738 0.0173602H17.1217C17.113 -1.68147e-08 16.7311 0 16.0627 0H5.1518C2.35681 0.0260403 0.108656 2.30023 0.0999756 5.09523C0.0999756 10.6505 0.108656 17.4036 0.0999756 20.0945C14.6739 26.5872 24.5171 21.9867 34.1 15.4506V5.11259C34.1 5.10391 34.1 5.10391 34.1 5.08655C34.0913 2.36099 31.956 0.147562 29.2738 0.0173602ZM29.7165 8.37631C27.9545 8.79295 18.0418 10.6331 10.3252 14.9732C9.82171 15.251 7.57355 16.7005 6.58402 15.0774C5.39484 13.1417 8.26797 11.9004 9.71754 11.3189C19.5434 7.43018 28.1715 6.63161 29.6124 6.89201C29.9335 6.95277 30.3241 7.14373 30.3936 7.6385C30.4543 8.12459 30.0984 8.28951 29.7165 8.37631Z" fill="#223266"/>
<path d="M34.1087 19.4261V28.9048C34.1087 31.7258 31.8258 34 29.0134 34H5.20388C2.38285 34 0.108658 31.7171 0.108658 28.9048V24.2175C14.1184 29.8856 23.2932 26.7695 34.1087 19.4261Z" fill="#223266"/>
</svg>
